HIERARCHY
ROOT Hips
{
	OFFSET 0.000000 0.000000 0.000000
	CHANNELS 6 Xposition Yposition Zposition Zrotation Yrotation Xrotation 
	JOINT LHipJoint
	{
		OFFSET 0.000000 0.000000 0.000000
		CHANNELS 3 Zrotation Yrotation Xrotation
		JOINT LeftUpLeg
		{
			OFFSET 1.363060 -1.794630 0.839290
			CHANNELS 3 Zrotation Yrotation Xrotation
			JOINT LeftLeg
			{
				OFFSET 2.448110 -6.726130 0.000000
				CHANNELS 3 Zrotation Yrotation Xrotation
				JOINT LeftFoot
				{
					OFFSET 2.562200 -7.039590 0.000000
					CHANNELS 3 Zrotation Yrotation Xrotation
					JOINT LeftToeBase
					{
						OFFSET 0.157640 -0.433110 2.322550
						CHANNELS 3 Zrotation Yrotation Xrotation
						End Site
						{
							OFFSET 0.000000 0.000000 0.000000
						}
					}
				}
			}
		}
	}
	JOINT RHipJoint
	{
		OFFSET 0.000000 0.000000 0.000000
		CHANNELS 3 Zrotation Yrotation Xrotation
		JOINT RightUpLeg
		{
			OFFSET -1.305520 -1.794630 0.839290
			CHANNELS 3 Zrotation Yrotation Xrotation
			JOINT RightLeg
			{
				OFFSET -2.542530 -6.985550 0.000000
				CHANNELS 3 Zrotation Yrotation Xrotation
				JOINT RightFoot
				{
					OFFSET -2.568260 -7.056230 0.000000
					CHANNELS 3 Zrotation Yrotation Xrotation
					JOINT RightToeBase
					{
						OFFSET -0.164730 -0.452590 2.363150
						CHANNELS 3 Zrotation Yrotation Xrotation
						End Site
						{
							OFFSET 0.000000 0.000000 0.000000
						}
					}
				}
			}
		}
	}
}
MOTION
Frames: 27
Frame Time: 0.008333
-11.713572 15.713862 -3.343658 -69.976033 84.145657 -38.957523 -8.482077 -3.358648 -1.275578 -5.341830 0.023420 -70.948767 -0.663963 3.864313 54.692212 1.894664 7.132763 -11.756275 -0.227700 0.000000 -21.711300 10.712110 -1.843410 -5.669054 12.804006 -7.567041 -21.734860 1.450689 -3.760883 50.488041 -0.052510 2.569988 -7.804328 -0.004400 0.000000 -76.225000
-11.515505 15.676124 -3.353361 -67.410559 83.572103 -36.738310 -8.513372 -3.368176 -1.459443 -5.066040 0.624948 -70.532359 -0.556331 4.007971 56.470774 2.008974 7.663090 -12.863936 -0.423900 0.000000 -21.801500 10.820282 -1.831354 -5.502218 12.808334 -6.729078 -21.696297 1.063874 -3.852567 52.329520 -0.122306 1.854970 -5.800158 0.026600 -0.000000 -76.740400
-11.320182 15.643140 -3.360761 -65.401089 83.109586 -35.042631 -8.552386 -3.364434 -1.620800 -4.873491 1.125200 -70.048095 -0.478093 4.128413 58.012353 2.127314 8.184183 -14.099499 -0.659500 -0.000000 -22.263000 10.919178 -1.804706 -5.365494 12.807052 -6.045374 -21.856554 0.685249 -3.946223 54.303086 -0.228028 0.993294 -3.877017 0.016399 -0.000000 -76.602700
-11.128035 15.615527 -3.366084 -63.792922 82.758234 -33.719583 -8.597131 -3.347683 -1.759222 -4.750722 1.516202 -69.495270 -0.423554 4.224684 59.326352 2.247464 8.690321 -15.401703 -0.927300 -0.000000 -23.038101 11.011887 -1.761969 -5.266020 12.796909 -5.543601 -22.204529 0.323814 -4.040580 56.380243 -0.369143 -0.024455 -2.117809 -0.048899 0.000000 -75.837100
-10.939412 15.593667 -3.369593 -62.464068 82.509493 -32.649775 -8.646542 -3.318797 -1.876474 -4.684903 1.803366 -68.877378 -0.387250 4.297682 60.429679 2.366004 9.173956 -16.703003 -1.215900 -0.000000 -24.040200 11.099386 -1.702336 -5.207119 12.779307 -5.229816 -22.728260 -0.013374 -4.135775 58.533420 -0.543592 -1.208157 -0.612369 -0.178600 -0.000000 -74.470900
-10.754667 15.577731 -3.371602 -61.325869 82.348961 -31.746765 -8.700494 -3.279418 -1.975367 -4.663234 2.001278 -68.200629 -0.363953 4.349510 61.343412 2.478645 9.626756 -17.936790 -1.510400 -0.000000 -25.169600 11.181301 -1.626473 -5.189002 12.759564 -5.096286 -23.415492 -0.322023 -4.233425 60.736471 -0.747446 -2.558621 0.563318 -0.373500 0.000000 -72.547701
-10.574040 15.567697 -3.372367 -60.312595 82.258128 -30.945618 -8.759188 -3.231744 -2.059457 -4.673768 2.131326 -67.475844 -0.349024 4.383330 62.090653 2.580884 10.040737 -19.044591 -1.794300 0.000000 -26.331100 11.256314 -1.535788 -5.208792 12.746760 -5.122401 -24.256635 -0.600522 -4.335772 62.963633 -0.975431 -4.062337 1.353742 -0.622300 0.000001 -70.120400
-10.397745 15.563322 -3.372126 -59.374766 82.216456 -30.195740 -8.822783 -3.178180 -2.132756 -4.705658 2.219841 -66.717701 -0.338862 4.403098 62.694591 2.668544 10.408115 -19.982233 -2.052001 0.000000 -27.449700 11.322638 -1.432050 -5.260893 12.752384 -5.277974 -25.243877 -0.849568 -4.444726 65.187890 -1.221431 -5.688660 1.732925 -0.901300 -0.000000 -67.298000
-10.225811 15.564312 -3.371015 -58.481694 82.203573 -29.464664 -8.891448 -3.121318 -2.198947 -4.749454 2.294898 -65.943002 -0.331140 4.412917 63.176349 2.738248 10.721083 -20.723542 -2.270300 0.000000 -28.478100 11.378096 -1.317857 -5.337438 12.789886 -5.527054 -26.371408 -1.070803 -4.561769 67.384522 -1.477836 -7.384870 1.690773 -1.174900 0.000000 -64.028500
-10.058199 15.570209 -3.369119 -57.616004 82.201033 -28.731076 -8.964678 -3.063592 -2.261609 -4.797782 2.382810 -65.170740 -0.324908 4.416828 63.554726 2.788053 10.972936 -21.262753 -2.441199 -0.000000 -29.396500 11.420564 -1.195352 -5.429341 12.872301 -5.830834 -27.635102 -1.266702 -4.686995 69.525274 -1.736805 -9.087171 1.253264 -1.403600 0.000000 -60.418300
-9.894747 15.580500 -3.366338 -56.764881 82.194192 -27.977518 -9.041314 -3.006837 -2.323570 -4.845654 2.505989 -64.419971 -0.320560 4.418435 63.844720 2.817644 11.158879 -21.612552 -2.561900 0.000000 -30.207600 11.448120 -1.066099 -5.526620 13.010580 -6.150270 -29.032210 -1.439710 -4.819107 71.580944 -1.989918 -10.724310 0.473097 -1.552000 -0.000000 -56.608000
-9.735177 15.594666 -3.362562 -55.933380 82.172800 -27.204881 -9.119987 -2.952882 -2.387010 -4.889462 2.680845 -63.706694 -0.319405 4.420461 64.058176 2.828030 11.275622 -21.801049 -2.634600 0.000000 -30.930200 11.458992 -0.931960 -5.619936 13.213590 -6.450721 -30.558712 -1.591550 -4.956196 73.524283 -2.228018 -12.223183 -0.581683 -1.595300 0.000000 -52.677800
-9.579166 15.612216 -3.357589 -55.141107 82.132505 -26.430190 -9.199243 -2.903284 -2.453303 -4.926629 2.916186 -63.041547 -0.323199 4.424565 64.203893 2.821200 11.322151 -21.865263 -2.665900 -0.000000 -31.594799 11.451822 -0.795128 -5.701640 13.486748 -6.705134 -32.208225 -1.722884 -5.096334 75.331945 -2.441388 -13.514067 -1.843734 -1.521900 0.000001 -48.603600
-9.426253 15.632666 -3.351188 -54.400260 82.073294 -25.662826 -9.277123 -2.858687 -2.523264 -4.956742 3.213113 -62.432214 -0.333832 4.431739 64.288028 2.799788 11.300085 -21.844554 -2.664300 -0.000000 -32.241600 11.425710 -0.656096 -5.765323 13.830195 -6.891572 -33.972893 -1.834444 -5.236348 76.976861 -2.622467 -14.549687 -3.210842 -1.345600 -0.000001 -44.660900
-9.276065 15.655676 -3.343120 -53.735687 82.000315 -24.929926 -9.352343 -2.819553 -2.597086 -4.979512 3.565961 -61.877266 -0.352748 4.441835 64.315063 2.766178 11.211961 -21.774621 -2.638400 0.000000 -32.914100 11.380235 -0.516633 -5.807726 14.240678 -7.000268 -35.839259 -1.925661 -5.374367 78.439904 -2.763909 -15.291857 -4.610085 -1.089400 -0.000000 -40.851500
-9.128077 15.680871 -3.333171 -53.161107 81.920882 -24.246568 -9.423503 -2.785595 -2.674686 -4.995618 3.963498 -61.372682 -0.380752 4.454263 64.288015 2.722620 11.062631 -21.682148 -2.595400 -0.000000 -33.658000 11.315480 -0.377049 -5.827167 14.710258 -7.026401 -37.792273 -1.996286 -5.507942 79.700050 -2.861474 -15.728274 -5.949957 -0.792800 0.000000 -37.438699
-8.981876 15.708049 -3.321139 -52.692049 81.844900 -23.634224 -9.490033 -2.756188 -2.755754 -5.005394 4.391254 -60.906566 -0.417774 4.467682 64.208890 2.670513 10.856990 -21.581616 -2.540000 -0.000000 -34.509700 11.231995 -0.238674 -5.824639 15.228991 -6.975127 -39.811804 -2.045367 -5.635776 80.741899 -2.912889 -15.860872 -7.169671 -0.493000 -0.000000 -34.523400
-8.837053 15.736996 -3.306922 -52.329623 81.781939 -23.100637 -9.551581 -2.730193 -2.840023 -5.009217 4.833480 -60.464933 -0.462980 4.480629 64.079401 2.610816 10.601066 -21.476265 -2.474400 -0.000000 -35.493000 11.130790 -0.102316 -5.802411 15.785147 -6.855229 -41.876077 -2.072077 -5.756657 81.551857 -2.919003 -15.710649 -8.218972 -0.223400 0.000001 -32.271100
-8.693113 15.767556 -3.290458 -52.068288 81.739697 -22.646200 -9.608150 -2.706123 -2.926928 -5.007340 5.274628 -60.033638 -0.514757 4.491579 63.901222 2.544009 10.301340 -21.358249 -2.398500 -0.000000 -36.615800 11.013212 0.031096 -5.763597 16.367264 -6.678719 -43.963797 -2.075197 -5.869864 82.120035 -2.883397 -15.311663 -9.075032 -0.005000 -0.000000 -30.772400
-8.549739 15.799597 -3.271706 -51.890875 81.724401 -22.262207 -9.660137 -2.682175 -3.016328 -5.000015 5.702272 -59.596110 -0.571199 4.499126 63.675936 2.470331 9.964825 -21.213894 -2.311300 -0.000001 -37.861901 10.880941 0.160274 -5.711852 16.964641 -6.459268 -46.051441 -2.053148 -5.975003 82.440133 -2.812114 -14.707534 -9.743383 0.155800 0.000001 -30.031500
-8.406541 15.832943 -3.250663 -51.769648 81.738422 -21.926792 -9.707952 -2.656396 -3.107850 -4.987638 6.106627 -59.139766 -0.630195 4.502248 63.405561 2.390104 9.599120 -21.026510 -2.211600 0.000000 -39.200399 10.735763 0.284171 -5.650197 17.568207 -6.208324 -48.118496 -2.003959 -6.071735 82.508944 -2.713240 -13.948178 -10.253708 0.264400 0.000001 -29.966800
-8.263188 15.867394 -3.227399 -51.670161 81.781164 -21.610312 -9.752052 -2.626760 -3.201323 -4.971359 6.482852 -58.654970 -0.689921 4.500461 63.092672 2.303866 9.211903 -20.781411 -2.099000 0.000000 -40.588200 10.579452 0.401587 -5.580764 18.171720 -5.934713 -50.146306 -1.925431 -6.159679 82.326275 -2.596194 -13.086171 -10.653582 0.333900 -0.000000 -30.419299
-8.119361 15.902674 -3.201939 -51.547665 81.848460 -21.271286 -9.792759 -2.591294 -3.296682 -4.952743 6.830453 -58.135741 -0.749131 4.493783 62.739499 2.212556 8.810832 -20.469258 -1.974500 0.000000 -41.978599 10.413685 0.511603 -5.504485 18.770353 -5.643349 -52.118749 -1.815361 -6.238189 81.893975 -2.470900 -12.173169 -10.999134 0.379600 -0.000000 -31.177300
-7.974759 15.938447 -3.174312 -51.351750 81.934088 -20.861085 -9.830228 -2.548184 -3.394044 -4.934363 7.152966 -57.580300 -0.807327 4.482790 62.348615 2.117392 8.402432 -20.087916 -1.840400 0.000000 -43.327600 10.239925 0.613525 -5.420991 19.361056 -5.334979 -54.022686 -1.672026 -6.306246 81.216173 -2.347179 -11.257838 -11.344736 0.415200 0.000000 -32.009800
-7.829052 15.974323 -3.144625 -51.035433 82.029471 -20.331410 -9.864561 -2.496086 -3.493402 -4.918953 7.457336 -56.991106 -0.864850 4.468412 61.922208 2.020032 7.992636 -19.644289 -1.700400 -0.000001 -44.602500 10.059160 0.706530 -5.328533 19.942780 -5.006721 -55.848243 -1.494277 -6.362383 80.297181 -2.234309 -10.384315 -11.733905 0.450601 -0.000000 -32.698200
-7.682033 16.009888 -3.112891 -50.544208 82.125441 -19.627386 -9.895746 -2.433793 -3.595153 -4.910038 7.752961 -56.371872 -0.922926 4.451887 61.462303 1.922204 7.585672 -19.153645 -1.559100 -0.000001 -45.780700 9.872147 0.790275 -5.224835 20.514133 -4.654359 -57.587370 -1.282143 -6.404665 79.142380 -2.140917 -9.592402 -12.194106 0.491600 0.000000 -33.065800
-7.533403 16.044775 -3.079230 -49.840367 82.212471 -18.707705 -9.923962 -2.361007 -3.699207 -4.910238 8.049668 -55.729770 -0.983246 4.434384 60.970071 1.825658 7.184675 -18.636264 -1.420801 0.000000 -46.857600 9.678925 0.863835 -5.106834 21.075921 -4.272292 -59.235647 -1.036735 -6.430868 77.756003 -2.074867 -8.917311 -12.732486 0.540500 -0.000000 -33.001900
